<svg width="1024" height="1024" viewBox="0 0 1024 1024" fill="none" xmlns="http://www.w3.org/2000/svg">
<path d="M193.2 732L189 732.6C187.4 733 186.4 732.8 186 732C184 732 182 732 180 732L172.2 735C170.6 735.8 169.4 735.4 168.6 733.8C168.6 733 168.6 732.2 168.6 731.4C168.2 731.4 167.6 731.4 166.8 731.4L157.8 735.6C156.2 736.4 155 736 154.2 734.4C153.8 733.6 153.8 732.8 154.2 732L147 735C145.4 735.8 144.2 735.4 143.4 733.8C142.6 732.2 143 731 144.6 730.2L151.2 726.6L142.2 729.6L131.4 733.8C129.8 734.6 128.8 734.2 128.4 732.6C128 732.6 127.6 732.6 127.2 732.6C126.8 732.6 125.2 733 122.4 733.8C122 734.2 121.6 734.4 121.2 734.4C119.6 734.4 118.6 733.8 118.2 732.6C117.8 730.6 118.4 729.4 120 729L123.6 727.8L130.8 724.2L139.2 720.6C138.8 720.2 138.4 719.6 138 718.8L130.2 723L120.6 727.2L111 730.8C109.4 731.6 108.2 731.2 107.4 729.6C106.6 728 107 726.8 108.6 726L118.8 721.8L127.8 718.2L134.4 714.6C134 713.4 133.4 712.4 132.6 711.6C132.2 710.4 131.8 709.4 131.4 708.6L117 713.4L108 717C106.4 717.8 105.2 717.4 104.4 715.8C103.6 714.2 104 713 105.6 712.2L114.6 708C115 708 115.2 708 115.2 708L124.2 705.6L129.6 703.2C129.6 703.2 129.6 702.8 129.6 702C129.2 701.6 129 701.4 129 701.4C129 699.8 129 698.2 129 696.6L125.4 698.4C125.4 698.8 125.4 699 125.4 699L115.2 701.4L105 705C103.4 705.4 102.2 704.8 101.4 703.2C101 701.6 101.6 700.4 103.2 699.6L114 696.6L123.6 693.6L129 690.6C128.6 689 128.4 687.4 128.4 685.8L124.8 687.6L114.6 692.4C114.6 692.4 114.4 692.4 114 692.4L103.8 694.8C101.8 695.2 100.6 694.6 100.2 693C99.8 691.4 100.4 690.4 102 690L112.8 687L122.4 682.8L128.4 679.8C128.4 679.4 128.4 678.6 128.4 677.4C128.4 675.8 127.4 674.8 125.4 674.4L116.4 678.6L106.2 683.4C104.6 683.8 103.4 683.2 102.6 681.6C101.8 680 102.2 678.8 103.8 678L114 673.8L123.6 669.6L128.4 667.8C128.4 665.8 128.4 663.8 128.4 661.8L124.8 663L114.6 666.6C114.6 666.6 114.4 666.6 114 666.6L105.6 669.6C104 670 102.8 669.4 102 667.8C101.6 666.2 102.2 665.2 103.8 664.8L112.8 661.8L123 657.6L128.4 655.8C128.4 653.8 128.4 651.6 128.4 649.2L123.6 650.4L112.8 653.4L103.2 657C101.6 657.4 100.4 656.8 99.6 655.2C99.2 653.2 99.8 652 101.4 651.6L111.6 648L121.8 645.6L128.4 643.2C128.8 642 129 640.2 129 637.8L124.8 639.6L115.8 642L105.6 646.2C104 647 102.8 646.4 102 644.4C101.6 642.8 102.2 641.8 103.8 641.4L114 637.2C114 637.2 114.2 637.2 114.6 637.2L123 634.2L129 631.8C129 629.4 129.2 627.4 129.6 625.8L126 627L115.8 631.8C115.4 631.8 115.2 631.8 115.2 631.8L106.2 634.2C104.6 635 103.4 634.4 102.6 632.4C102.2 630.8 102.8 629.8 104.4 629.4L113.4 626.4L124.2 622.2L129.6 619.8C129.6 619.4 129.6 618.8 129.6 618C129.6 616.8 129.6 615.6 129.6 614.4L126 615.6L117 619.2L106.2 623.4C104.6 623.8 103.4 623.2 102.6 621.6C102.2 620 102.8 618.8 104.4 618L114.6 614.4L124.2 610.8L129.6 608.4C129.6 606.8 129.6 605 129.6 603L124.2 604.8L114.6 609L105 613.8C103.4 614.6 102.2 614.2 101.4 612.6C100.6 611 101 609.8 102.6 609L112.2 604.2L121.8 600C122.2 600 122.4 600 122.4 600C122.4 599.6 122.4 599.4 122.4 599.4L129.6 597C129.6 595.4 129.4 593.2 129 590.4L126 591.6L116.4 595.8L106.2 600.6C104.6 601 103.4 600.4 102.6 598.8C101.8 597.2 102.2 596 103.8 595.2L124.2 586.8L129 584.4C129 582.4 129 580.8 129 579.6L124.8 580.8L116.4 584.4L106.8 589.2C105.2 590 104 589.6 103.2 588C102.4 586.4 102.8 585.2 104.4 584.4L122.4 575.4C122.8 575.4 123 575.4 123 575.4L129 574.2C129 571.4 129 569 129 567L114.6 571.8L105 575.4C103.4 576.2 102.2 575.8 101.4 574.2C100.6 572.6 101.2 571.4 103.2 570.6L112.2 567C112.2 567 112.2 566.8 112.2 566.4C112.6 566.4 112.8 566.4 112.8 566.4L121.8 564L129 561C129 561 129 560.8 129 560.4C129 559.2 128.2 558.6 126.6 558.6L116.4 562.2L105.6 566.4C104 566.8 102.8 566.2 102 564.6C101.6 563 102.2 561.8 103.8 561L114 557.4L124.8 553.2L129 551.4C129 549.4 129 547.2 129 544.8L124.8 546.6L114.6 550.2L105.6 553.2C104 554 102.8 553.6 102 552C101.6 550 102.2 548.8 103.8 548.4L113.4 544.8L123 541.8L129.6 538.8C129.6 536 128.8 534.2 127.2 533.4L118.2 537.6L107.4 541.8C105.8 542.2 104.6 541.6 103.8 540C103.4 538.4 104 537.2 105.6 536.4L115.8 532.8L125.4 528.6L130.2 526.8C130.2 525.6 130.2 524.4 130.2 523.2C130.6 521.6 130.8 520.2 130.8 519L125.4 521.4L115.2 524.4L105.6 528.6C104 529.4 102.8 529 102 527.4C101.2 525.8 101.6 524.6 103.2 523.8L112.8 519C113.2 519 113.4 519 113.4 519L123.6 516L131.4 513C131.4 511.4 131.4 509.8 131.4 508.2L125.4 510L115.8 514.8L106.8 519C105.2 520.2 104 520 103.2 518.4C102.4 516.8 102.8 515.4 104.4 514.2L113.4 510L123 505.2C123 505.2 123.2 505.2 123.6 505.2L132 502.2C132 501.4 132 500.8 132 500.4C132 498.8 132 497.2 132 495.6L126 498.6L116.4 501.6L105.6 506.4C104 507.2 102.8 506.8 102 505.2C101.2 503.6 101.8 502.4 103.8 501.6L114 496.8C114.4 496.8 114.6 496.8 114.6 496.8L124.2 493.2L132 489.6C132.4 488 132.6 486.4 132.6 484.8L126 486.6L115.2 489.6L106.8 492C105.2 492.8 104 492.4 103.2 490.8C102.8 488.8 103.4 487.6 105 487.2L114 484.2L124.2 481.8L132.6 479.4C132.6 477 132.6 474.2 132.6 471L114.6 477C114.6 477 114.4 477 114 477L103.8 480C101.8 480.4 100.6 479.8 100.2 478.2C99.8 476.2 100.4 475 102 474.6L112.8 472.2L121.8 468.6L132 465C132 464.6 132 464.2 132 463.8C132 463.4 132 463 132 462.6C132 461.8 132 461 132 460.2L127.2 462L117 465.6L106.8 468.6C105.2 469.4 104 468.8 103.2 466.8C102.8 465.2 103.4 464.2 105 463.8L115.8 460.2L125.4 456.6L132 454.8C132 452.8 132 451 132 449.4L126.6 451.2L117 455.4L108 459C106.4 459.4 105.2 458.8 104.4 457.2C104 455.6 104.6 454.4 106.2 453.6L114.6 450.6L124.8 446.4L132 443.4C132 442.6 132 441.6 132 440.4C132 439.2 132.2 438 132.6 436.8L124.8 439.2L116.4 441.6L106.8 446.4C105.2 447.2 104 446.8 103.2 445.2C102.4 443.6 102.8 442.4 104.4 441.6L114 436.8C114.4 436.8 114.6 436.8 114.6 436.8L123 433.8L132.6 431.4C132.6 429 132.6 426.6 132.6 424.2L123.6 426.6L112.8 429.6L103.8 433.2C102.2 433.6 101 433 100.2 431.4C99.8 429.8 100.4 428.6 102 427.8L111 424.2C111 424.2 111.2 424.2 111.6 424.2L121.8 421.8L132.6 418.8C133 417.2 133.2 415.6 133.2 414L124.8 418.2L115.8 422.4L106.8 426C105.2 426.8 104 426.2 103.2 424.2C102.8 422.6 103.4 421.6 105 421.2L113.4 417.6L122.4 413.4L133.2 408C133.6 405.6 133.8 403.6 133.8 402L124.8 405.6L115.2 410.4L104.4 414.6C102.8 415.4 101.6 415 100.8 413.4C100 411.8 100.6 410.6 102.6 409.8L112.8 405L123 400.8L133.8 396C133.8 394.8 133.8 393.6 133.8 392.4C133.8 391.6 133.8 390.8 133.8 390L124.8 394.2C124.8 394.2 124.8 394.4 124.8 394.8L115.2 397.2L105.6 402C104 402.8 102.8 402.4 102 400.8C101.2 399.2 101.6 398 103.2 397.2L112.8 392.4C113.2 392.4 113.4 392.4 113.4 392.4L123 389.4L134.4 384C134.4 381.6 134.4 379.2 134.4 376.8L114 384L103.8 388.2C102.2 389 101 388.6 100.2 387C99.4 385.4 99.8 384.2 101.4 383.4L111.6 378.6C112 378.6 112.2 378.6 112.2 378.6L122.4 375L134.4 371.4C134.8 369.4 135 367.2 135 364.8L125.4 367.8L116.4 372L106.8 375.6C105.2 376 104 375.4 103.2 373.8C102.8 372.2 103.4 371 105 370.2L114 367.2L123.6 363L135 359.4C135 357.8 135 356 135 354L127.2 357L116.4 361.2L107.4 363.6C105.8 364 104.6 363.4 103.8 361.8C103.4 360.2 104 359.2 105.6 358.8L115.2 355.8L125.4 351.6L135 348C135 345.6 135 344 135 343.2L126 346.2L115.2 349.2L105 353.4C103.4 354.2 102.2 353.8 101.4 352.2C100.6 350.6 101.2 349.4 103.2 348.6L113.4 344.4C113.4 344.4 113.6 344.2 114 343.8L124.2 341.4L135 336.6C135 333.8 134.8 331.8 134.4 330.6L124.2 334.2L114.6 338.4C114.2 338.4 114 338.4 114 338.4L105 341.4C103.4 341.8 102.2 341.2 101.4 339.6C101 338 101.6 336.8 103.2 336L112.2 333.6L121.8 328.8C122.2 328.8 122.4 328.8 122.4 328.8L135 324.6C135 323.4 135 322.2 135 321C135 320.2 135 319.2 135 318L126 321.6L117.6 325.2L106.8 328.8C105.2 329.6 104 329.2 103.2 327.6C102.8 326 103.4 324.8 105 324L115.2 319.8L124.2 316.8L135.6 312.6C135.6 311.4 135.6 310.4 135.6 309.6L130.8 310.8L121.8 313.2C121.4 313.6 121 313.8 120.6 313.8L110.4 317.4C108.8 318.2 107.6 317.8 106.8 316.2C106.4 314.2 107 313 108.6 312.6L118.8 308.4C118.8 308.4 119 308.4 119.4 308.4C119.4 308.4 120.2 308.2 121.8 307.8L128.4 304.8L136.8 300.6C138 297 140.2 293.8 143.4 291C145.4 288.6 147.8 287 150.6 286.2C153.8 285 156.8 284 159.6 283.2C161.6 283.2 163.4 283.2 165 283.2C166.6 283.2 168.2 283.2 169.8 283.2C171.8 283.2 173.2 283.2 174 283.2C182 283.2 190.2 283.4 198.6 283.8C198.6 283.8 198.8 283.8 199.2 283.8C221.2 286.2 243.2 287.6 265.2 288C287.2 288.4 309 289.2 330.6 290.4C344.2 291.2 357.8 291.4 371.4 291C385.4 290.2 399.2 289.4 412.8 288.6C416.4 288.2 420 288 423.6 288C427.6 287.6 431.4 287.4 435 287.4C438.6 287 442.2 286.8 445.8 286.8C449.4 286.8 453 286.8 456.6 286.8C457.4 286.8 458.8 286.8 460.8 286.8C462 286.4 463.4 286.2 465 286.2C466.6 286.2 468.2 286.4 469.8 286.8C472.6 287.2 475.2 288 477.6 289.2C480.4 290 483 291.6 485.4 294C488.6 297.6 490.4 301.6 490.8 306C491.2 310 491.4 314.2 491.4 318.6C491.4 320.2 491.2 321.2 490.8 321.6C490.8 326.8 490.8 332 490.8 337.2C490.8 342 490.8 347 490.8 352.2C491.2 357.8 491.4 363.4 491.4 369C491.4 374.2 491.4 379.4 491.4 384.6C491.4 385.4 491.6 386.4 492 387.6C492 392.4 491.6 397 490.8 401.4C490.4 405.8 488.4 410 484.8 414C482.8 416.4 480.4 418.2 477.6 419.4C474.8 420.2 471.8 421 468.6 421.8C467 422.2 465.4 422.4 463.8 422.4C462.6 422.4 461.2 422.4 459.6 422.4C457.6 422.4 456.2 422.4 455.4 422.4C453.8 422.4 452 422.6 450 423L440.4 426L430.2 429.6C428.6 430.4 427.4 430 426.6 428.4C426.6 428 426.6 427.6 426.6 427.2L419.4 429C418.2 429.4 417.2 429.2 416.4 428.4L409.2 432C407.6 432.8 406.4 432.4 405.6 430.8C404.8 429.2 405.2 428 406.8 427.2L412.2 424.8C410.6 424.8 409 424.8 407.4 424.8L403.8 426L393.6 428.4C391.6 429.2 390.4 428.6 390 426.6C390 426.2 390 425.8 390 425.4L380.4 429.6C378.8 430.4 377.6 430 376.8 428.4L371.4 430.8C369.8 431.6 368.6 431.2 367.8 429.6C367 428 367.6 426.8 369.6 426C368.8 426 367.4 426 365.4 426L359.4 428.4C359 428.8 357.4 428.8 354.6 428.4L346.2 430.8C344.6 431.6 343.4 431.2 342.6 429.6C342.6 429.2 342.6 429 342.6 429L334.2 431.4C332.6 432.2 331.4 431.8 330.6 430.2C330.2 429 330.4 428 331.2 427.2L322.2 430.2C320.6 431 319.4 430.6 318.6 429L309.6 432.6C308 433.4 306.8 433 306 431.4C305.6 430.6 305.6 429.8 306 429L297.6 432.6C297.6 432.6 297.6 432.8 297.6 433.2C297.6 434.8 297.6 436.4 297.6 438C297.6 439.6 297.6 441.2 297.6 442.8C297.6 444 297.6 445 297.6 445.8C298.8 445.8 299.6 445.8 300 445.8C300.4 445.8 300.8 445.8 301.2 445.8C301.6 445.8 302 445.8 302.4 445.8C305.6 445.8 309 445.8 312.6 445.8C316.2 445.8 319.8 445.8 323.4 445.8C333 445.4 342.6 445 352.2 444.6C362.2 443.8 372 443.2 381.6 442.8C387.2 442.8 392.8 442.8 398.4 442.8C404.4 442.8 410.2 442.8 415.8 442.8C418.2 443.2 420.6 443.4 423 443.4C425.4 443.4 427.6 443.4 429.6 443.4C431.6 443.4 433.6 443.4 435.6 443.4C437.6 443.4 439.6 443.4 441.6 443.4C442.4 443.4 443.6 443.4 445.2 443.4C450.4 443 455.2 443.2 459.6 444C464 444.4 468.2 446.4 472.2 450C476.6 454 479 458.6 479.4 463.8C480.2 468.6 480.8 473.6 481.2 478.8C481.2 484.4 481.4 490 481.8 495.6C482.2 500.8 482.6 506.2 483 511.8C483 515.4 483.2 519.2 483.6 523.2C484 526.8 484.4 530.4 484.8 534C484.8 534.8 484.8 536 484.8 537.6C485.2 539.2 485.4 540.8 485.4 542.4C485.4 544 485.4 545.6 485.4 547.2C484.6 550.4 483.6 553.4 482.4 556.2C481.6 559 480 561.6 477.6 564C475.2 566 472.6 567.6 469.8 568.8C467 569.6 464 570.2 460.8 570.6C460.8 570.6 460.6 570.6 460.2 570.6C459.4 570.6 459 570.6 459 570.6C454.2 570.6 448.6 570.4 442.2 570L435.6 573L426.6 576L415.8 580.2C414.2 581 413 580.6 412.2 579C411.4 577.4 412 576.2 414 575.4L403.8 579C402.2 579.8 401 579.4 400.2 577.8C399.8 576.2 400.2 575 401.4 574.2L395.4 577.2C393.4 578 392.2 577.6 391.8 576C391.8 576 391.4 576.2 390.6 576.6L380.4 579.6C378.8 580.4 377.8 580 377.4 578.4C377.4 578 377.2 577.8 376.8 577.8L372 580.2C370.4 581 369.2 580.6 368.4 579C367.6 577.4 368 576.2 369.6 575.4L378 571.2L383.4 568.2L376.8 571.2L366 574.8L356.4 578.4C354.8 579.2 353.6 578.8 352.8 577.2C352.4 576.4 352.4 575.6 352.8 574.8L346.2 576.6C344.2 577.4 343 577 342.6 575.4C342.6 575 342.6 574.8 342.6 574.8L333.6 578.4C332 579.2 330.8 578.8 330 577.2C329.6 575.6 330.2 574.4 331.8 573.6L336 571.8L330.6 573.6L320.4 576.6C319.2 577 318.4 577 318 576.6L310.8 579C309.2 579.8 308.2 579.4 307.8 577.8C307.4 577.4 307 577.2 306.6 577.2L297.6 581.4C296 582.2 294.8 581.8 294 580.2C293.6 581.4 293.4 582.6 293.4 583.8C293.4 584.2 293.4 584.6 293.4 585C294.2 585 295 585 295.8 585C301.4 585.4 307 585.8 312.6 586.2C318.6 586.6 324.4 587 330 587.4C330 587.4 330.2 587.4 330.6 587.4C349.8 590.2 369 591.6 388.2 591.6C407.8 591.6 427 592.2 445.8 593.4C447.8 593.4 449.8 593.4 451.8 593.4C453.8 593.4 455.8 593.4 457.8 593.4C458.6 593.4 459.8 593.4 461.4 593.4C466.6 593.4 471.4 593.8 475.8 594.6C480.6 595.4 485 597.6 489 601.2C493 605.2 495.4 610 496.2 615.6C497 620.8 497.4 626.2 497.4 631.8C497.4 633 497.4 634.4 497.4 636C497.4 637.2 497.4 638.4 497.4 639.6C497.8 648 498 656.6 498 665.4C498.4 673.8 498.6 682.2 498.6 690.6C498.6 691.4 498.6 692.2 498.6 693C498.6 697.8 498.2 702.6 497.4 707.4C497 711.8 494.8 715.8 490.8 719.4C488.4 721.8 485.8 723.4 483 724.2C480.2 725 477.2 725.8 474 726.6C472.4 726.6 470.8 726.6 469.2 726.6C468 726.6 466.6 726.4 465 726C463 726 461.6 726 460.8 726C458.4 726 456.4 726 454.8 726L446.4 729L436.2 732.6C434.6 733.4 433.4 733 432.6 731.4C432.6 730.6 432.6 730 432.6 729.6L423.6 732C421.6 732.8 420.4 732.2 420 730.2C420 730.2 420 730 420 729.6L411 733.2C409 734 407.8 733.6 407.4 732C407 731.6 406.8 731.2 406.8 730.8L398.4 734.4C396.8 735.2 395.6 734.8 394.8 733.2C394.8 732.8 394.8 732.2 394.8 731.4L388.8 733.8C387.2 734.6 386 734.2 385.2 732.6C384.8 731.8 384.8 731 385.2 730.2L376.8 734.4C375.2 735.2 374 734.8 373.2 733.2C372.4 731.6 373.4 730.2 376.2 729L366 732.6C364.8 733.4 363.8 733 363 731.4L355.2 734.4C353.6 735.2 352.4 734.8 351.6 733.2C351.2 732.4 351.2 731.6 351.6 730.8L344.4 734.4C342.8 735.2 341.6 734.8 340.8 733.2C340 731.6 340.4 730.4 342 729.6L348.6 726.6L339.6 729L328.8 731.4C327.2 731.8 326.2 731.4 325.8 730.2L319.2 732C318 732.4 317 732.2 316.2 731.4L307.2 733.8C305.6 734.6 304.6 734 304.2 732C303.8 730.4 304.4 729.4 306 729L316.2 726C315.4 726 314.4 726 313.2 726L307.8 728.4L298.2 730.8C296.6 731.6 295.6 731 295.2 729C294.8 728.6 294 728.6 292.8 729L283.8 731.4C282.2 732.2 281 731.6 280.2 729.6C280.2 729.6 280.2 729.4 280.2 729L272.4 730.8C270.8 731.2 269.6 730.8 268.8 729.6L263.4 732C261.8 732.8 260.6 732.4 259.8 730.8C259.4 730 259.4 729.4 259.8 729L251.4 733.2C249.8 734 248.6 733.6 247.8 732C247.4 731.6 247.2 731 247.2 730.2L236.4 734.4C234.8 735.2 233.6 734.8 232.8 733.2C232.4 732.4 232.4 731.6 232.8 730.8L226.8 732.6C224.8 733.4 223.6 732.8 223.2 730.8C222 730.8 220.6 730.8 219 730.8C217.8 730.8 216 731 213.6 731.4C212.8 731.8 212 731.8 211.2 731.4C210.4 731.4 209.6 731.4 208.8 731.4L203.4 733.2C201.8 734 200.6 733.6 199.8 732C199.8 732 199.8 731.8 199.8 731.4C197.4 731.8 195.2 732 193.2 732ZM159 713.4C160.6 713 161.8 713.6 162.6 715.2C162.6 715.6 162.6 716 162.6 716.4L170.4 713.4C172.4 713 173.6 713.6 174 715.2C174 715.6 174 716 174 716.4L182.4 713.4C184 713 185 713.6 185.4 715.2C185.8 716 185.8 716.8 185.4 717.6C185.8 717.6 186.2 717.6 186.6 717.6L193.2 714C194.8 713.2 196 713.6 196.8 715.2C197.2 716 197.2 716.6 196.8 717C197.2 717 197.4 717 197.4 717L205.2 714C206.8 713.2 208 713.6 208.8 715.2C208.8 715.6 208.8 716.2 208.8 717C209.2 717 209.6 717 210 717L216.6 714C218.2 713.2 219.4 713.6 220.2 715.2C220.2 715.6 220.2 716 220.2 716.4C221 716.4 221.8 716.4 222.6 716.4L228 714C230 713.2 231.2 713.6 231.6 715.2C231.6 715.2 231.8 715.4 232.2 715.8C233 715.4 233.8 715.2 234.6 715.2L240 713.4C241.6 713 242.6 713.4 243 714.6C244.2 714.6 245.4 714.6 246.6 714.6C247.8 714.2 249.6 713.8 252 713.4C252.8 713.4 253.4 713.6 253.8 714C264.6 712.8 275.4 712.2 286.2 712.2C297 711.8 307.8 711.6 318.6 711.6C323 711.6 327.4 711.6 331.8 711.6C336.6 711.6 341.2 711.6 345.6 711.6C348.8 711.6 352 711.6 355.2 711.6C358.4 711.2 361.6 711 364.8 711C375.2 711 385.6 711 396 711C406.4 710.6 416.6 710.4 426.6 710.4C432.6 710.4 438.4 710.6 444 711C450 711 455.8 711.2 461.4 711.6C462.2 711.6 463.4 711.8 465 712.2C468.2 712.2 470.6 712.2 472.2 712.2C473.4 711.8 474.8 711.4 476.4 711C478.4 710.6 479.8 710 480.6 709.2C482.6 707.2 483.6 705 483.6 702.6C484 699.8 484.2 697 484.2 694.2C484.2 692.6 484.2 691.6 484.2 691.2C484.2 682.4 484 673.8 483.6 665.4C483.6 657 483.4 648.6 483 640.2C483 638.6 483 636.4 483 633.6C483.4 629.6 483.4 625.6 483 621.6C482.6 617.2 481.2 614 478.8 612C476.8 609.6 474.2 608.4 471 608.4C467.8 608 464.8 607.8 462 607.8C460 607.8 458.6 607.8 457.8 607.8C455.8 607.8 453.6 607.8 451.2 607.8C449.2 607.8 447.2 607.8 445.2 607.8C426 606.6 406.6 606 387 606C367.4 606 348 604.6 328.8 601.8C323.2 601.4 317.4 601 311.4 600.6C305.8 600.2 300.2 599.8 294.6 599.4C293.4 599.4 291.8 599.4 289.8 599.4C288.2 599.8 286.6 600 285 600C283.4 599.6 281.8 598.6 280.2 597C278.6 595.4 277.8 594 277.8 592.8C277.8 591.2 278 589.6 278.4 588C278.8 586 279 584.6 279 583.8C279.4 580.6 279.6 577.4 279.6 574.2C279.6 570.6 279.6 567.2 279.6 564C279.6 563.2 279.4 561.8 279 559.8C279 558.2 279 556.8 279 555.6C279 554 280 552.4 282 550.8C284 549.6 285.8 549 287.4 549C289 549 290.8 549.2 292.8 549.6C294.8 550 296.4 550.2 297.6 550.2C302 550.2 306.2 550.4 310.2 550.8C314.6 550.8 319 550.8 323.4 550.8C341.8 551.6 360.2 552.2 378.6 552.6C397.4 552.6 416 553.6 434.4 555.6C438.8 555.6 443 555.8 447 556.2C451 556.2 455 556.2 459 556.2C460.6 556.2 462.2 556 463.8 555.6C465.4 555.2 466.8 554.6 468 553.8C468.8 552.6 469.4 551.2 469.8 549.6C470.2 548 470.6 546.4 471 544.8C471.4 543.6 471.2 541.4 470.4 538.2C470.4 536.6 470.4 535.6 470.4 535.2C470 531.2 469.6 527.4 469.2 523.8C468.8 520.2 468.6 516.6 468.6 513C468.2 507.4 467.8 501.8 467.4 496.2C467 490.6 466.8 485 466.8 479.4C466.8 478.6 466.8 477.4 466.8 475.8C466.8 473 466.6 470.2 466.2 467.4C465.8 464.6 464.6 462.4 462.6 460.8C460.6 458.8 458 457.8 454.8 457.8C452 457.4 449 457.2 445.8 457.2C444.2 457.6 442.8 457.8 441.6 457.8C439.6 457.8 437.6 457.8 435.6 457.8C433.6 457.8 431.6 457.8 429.6 457.8C427.2 457.8 424.8 457.8 422.4 457.8C420.4 457.8 418.2 457.6 415.8 457.2C410.2 457.2 404.6 457.2 399 457.2C393.4 457.2 387.6 457.2 381.6 457.2C372 457.6 362.4 458.2 352.8 459C343.2 459.4 333.4 459.6 323.4 459.6C319.8 460 316.2 460.2 312.6 460.2C309 460.2 305.4 460.2 301.8 460.2C301.8 460.2 301.6 460.2 301.2 460.2C300.8 460.2 300.4 460.2 300 460.2C298.8 460.2 297.2 460.4 295.2 460.8C293.6 460.8 292 460.8 290.4 460.8C288.8 460.8 287 460.2 285 459C283.4 457.4 282.6 456 282.6 454.8C282.6 453.2 282.6 451.6 282.6 450C283 448 283.2 446.6 283.2 445.8C283.2 444.6 283.2 443.8 283.2 443.4C283.2 440.6 283.2 438 283.2 435.6C283.2 432.8 283.2 430 283.2 427.2C283.2 426.4 283 425.2 282.6 423.6C282.2 421.6 282 420 282 418.8C282 417.2 283 415.6 285 414C286.6 413.2 288 412.8 289.2 412.8C290.8 412.4 292.4 412.2 294 412.2C294 412.2 294.2 412 294.6 411.6L298.8 410.4C300.8 410 302 410.6 302.4 412.2C302.4 412.6 302.4 413 302.4 413.4C302.8 413.4 303.2 413.4 303.6 413.4C303.6 413.4 303.6 413.2 303.6 412.8C304 412.8 304.2 412.8 304.2 412.8L310.8 410.4C312.4 410 313.6 410.6 314.4 412.2C314.4 412.6 314.4 413 314.4 413.4C315.6 413.4 316.8 413.2 318 412.8L322.2 411C323.8 410.2 325 410.6 325.8 412.2C326.2 412.2 326.4 412.4 326.4 412.8C327.6 412.8 328.8 412.8 330 412.8L334.8 411C336.4 410.2 337.6 410.6 338.4 412.2C339.2 412.2 340.2 412.2 341.4 412.2C342.6 411.8 344.2 411.4 346.2 411C347.8 410.2 349 410.4 349.8 411.6C351 411.6 352.2 411.6 353.4 411.6C354.6 411.6 356.4 411.2 358.8 410.4C360 410 361 410.4 361.8 411.6C363 411.6 364.2 411.6 365.4 411.6C367 411.6 368.6 411.4 370.2 411C371.4 410.2 372.6 410.4 373.8 411.6C375 411.6 376.2 411.6 377.4 411.6C379 411.2 380.8 411 382.8 411C383.6 410.2 384.6 410.2 385.8 411C387 411 388.2 411 389.4 411C391 411 392.8 410.8 394.8 410.4C396 410.4 396.8 410.6 397.2 411C400.8 411 404.2 410.8 407.4 410.4C407.4 410.4 407.6 410.4 408 410.4C416.4 410 424.2 409.4 431.4 408.6C439.4 408.2 447.2 408 454.8 408C455.6 408 457 408 459 408C461.8 408 464 408 465.6 408C467.2 407.6 468.8 407.2 470.4 406.8C472 406.4 473.4 405.6 474.6 404.4C476.2 402.4 477 400 477 397.2C477.4 394.4 477.6 391.6 477.6 388.8C477.2 387.2 477 386 477 385.2C477 379.6 477 374.2 477 369C477 363.4 476.8 357.8 476.4 352.2C476.4 347 476.4 341.8 476.4 336.6C476.4 331.4 476.4 326.2 476.4 321C476.8 320.6 477 319.4 477 317.4C477.4 315 477.4 312.6 477 310.2C477 307.8 476.2 305.6 474.6 303.6C473.8 302.8 472.6 302.2 471 301.8C469.4 301.4 468 301 466.8 300.6C465.2 300.6 463 300.6 460.2 300.6C458.6 301 457.6 301.2 457.2 301.2C453.6 301.2 450 301.2 446.4 301.2C442.8 301.2 439.2 301.4 435.6 301.8C432 301.8 428.4 302 424.8 302.4C421.2 302.4 417.4 302.6 413.4 303C399.8 303.8 386 304.6 372 305.4C358 305.8 344 305.6 330 304.8C308 303.6 286 302.8 264 302.4C242 302 220 300.6 198 298.2C189.6 297.8 181.6 297.6 174 297.6C173.2 297.6 171.8 297.6 169.8 297.6C168.6 297.6 167.4 297.6 166.2 297.6C165 297.2 163.8 297.2 162.6 297.6C162.6 297.6 162.4 297.6 162 297.6C162 298 161.6 298.4 160.8 298.8L153 301.2C151 303.2 149.8 305.8 149.4 309C149.4 311.8 149.4 314.6 149.4 317.4C149.4 319 149.4 320.2 149.4 321C149.4 333 149.4 345 149.4 357C149.4 369 149 381 148.2 393C148.2 401 148 409 147.6 417C147.2 425 146.8 433 146.4 441C146.4 445 146.4 449 146.4 453C146.4 456.6 146.4 460.4 146.4 464.4C146.8 470.4 147 476.4 147 482.4C147 488.4 146.8 494.4 146.4 500.4C146.4 500.4 146.4 500.6 146.4 501C146 503.8 145.8 506.8 145.8 510C146.2 510.4 146.4 510.8 146.4 511.2C146.8 512.4 146.6 513.4 145.8 514.2C145.4 516.2 145.2 518.6 145.2 521.4C145.6 521.8 145.8 522.2 145.8 522.6C146.6 524.2 146.2 525.4 144.6 526.2C144.6 528.6 144.4 530.8 144 532.8C144.8 533.2 145.4 533.8 145.8 534.6C146.6 536.2 146 537.4 144 538.2C144 540.6 143.8 542.8 143.4 544.8C144.6 544.8 145.4 545.2 145.8 546C146.6 547.6 145.8 549.2 143.4 550.8C143.4 552.4 143.4 554.2 143.4 556.2C145 555.8 146 556.4 146.4 558C146.8 560 145.8 561.4 143.4 562.2C143.4 563.8 143.4 565.8 143.4 568.2C144.6 567.8 145.4 568.2 145.8 569.4C146.6 571 145.8 572.6 143.4 574.2C143.4 575.8 143.4 577.6 143.4 579.6C145 579.6 146 580.4 146.4 582C146.8 583.6 145.8 584.8 143.4 585.6V586.2C143.4 588.6 143.4 590.4 143.4 591.6C144.6 591.6 145.6 592.2 146.4 593.4C146.8 595 146 596.2 144 597C144 599.4 144 601.4 144 603C145.2 603.4 146 604.2 146.4 605.4C146.8 607 146 608.2 144 609C144 611 144 613 144 615C145.2 615 146 615.6 146.4 616.8C146.8 618.4 146 619.6 144 620.4C144 622.4 143.8 624.6 143.4 627C145 626.6 146 627.2 146.4 628.8C146.8 630.4 145.8 631.6 143.4 632.4C143.4 633.6 143.4 635.4 143.4 637.8C143.4 637.8 143.4 638 143.4 638.4C145 638 146 638.6 146.4 640.2C146.8 642.2 145.6 643.6 142.8 644.4C142.8 646.8 142.8 648.8 142.8 650.4C144.4 650 145.6 650.6 146.4 652.2C146.8 653.8 145.6 655.2 142.8 656.4C142.8 658.8 142.8 660.8 142.8 662.4C144.4 661.6 145.6 662 146.4 663.6C146.8 665.2 145.6 666.6 142.8 667.8C142.8 670.6 142.8 672.6 142.8 673.8C144.4 673.4 145.6 674 146.4 675.6C146.8 677.2 145.6 678.6 142.8 679.8C142.8 681.8 142.8 683.8 142.8 685.8C144.4 685 145.6 685.6 146.4 687.6C146.8 689.2 145.8 690.4 143.4 691.2C143.4 693.2 143.4 695.2 143.4 697.2C144.6 697.2 145.4 697.8 145.8 699C146.6 700.6 146.2 701.8 144.6 702.6C145 703.8 145.4 705 145.8 706.2C146.6 707 147.2 707.8 147.6 708.6C149.2 708.2 150.2 708.8 150.6 710.4L159 713.4ZM294 577.8C294 577.4 294.4 577 295.2 576.6L304.2 572.4C304.2 572.4 304.4 572.2 304.8 571.8L315 567.6L320.4 565.2C320.4 565.2 320.2 565.2 319.8 565.2L315 566.4L305.4 569.4L297 573.6C296.6 573.6 295.6 574 294 574.8C294 575.2 294 575.8 294 576.6C294 577 294 577.4 294 577.8ZM363 725.4C363 725.4 362.6 725.4 361.8 725.4L357.6 727.8L363 725.4Z" fill="#6750A4"/>
<path d="M593.395 732L589.195 732.6C587.595 733 586.595 732.8 586.195 732C584.195 732 582.195 732 580.195 732L572.395 735C570.795 735.8 569.595 735.4 568.795 733.8C568.795 733 568.795 732.2 568.795 731.4C568.395 731.4 567.795 731.4 566.995 731.4L557.995 735.6C556.395 736.4 555.195 736 554.395 734.4C553.995 733.6 553.995 732.8 554.395 732L547.195 735C545.595 735.8 544.395 735.4 543.595 733.8C542.795 732.2 543.195 731 544.795 730.2L551.395 726.6L542.395 729.6L531.595 733.8C529.995 734.6 528.995 734.2 528.595 732.6C528.195 732.6 527.795 732.6 527.395 732.6C526.995 732.6 525.395 733 522.595 733.8C522.195 734.2 521.795 734.4 521.395 734.4C519.795 734.4 518.795 733.8 518.395 732.6C517.995 730.6 518.595 729.4 520.195 729L523.795 727.8L530.995 724.2L539.395 720.6C538.995 720.2 538.595 719.6 538.195 718.8L530.395 723L520.795 727.2L511.195 730.8C509.595 731.6 508.395 731.2 507.595 729.6C506.795 728 507.195 726.8 508.795 726L518.995 721.8L527.995 718.2L534.595 714.6C534.195 713.4 533.595 712.4 532.795 711.6C532.395 710.4 531.995 709.4 531.595 708.6L517.195 713.4L508.195 717C506.595 717.8 505.395 717.4 504.595 715.8C503.795 714.2 504.195 713 505.795 712.2L514.795 708C515.195 708 515.395 708 515.395 708L524.395 705.6L529.795 703.2C529.795 703.2 529.795 702.8 529.795 702C529.395 701.6 529.195 701.4 529.195 701.4C529.195 699.8 529.195 698.2 529.195 696.6L525.595 698.4C525.595 698.8 525.595 699 525.595 699L515.395 701.4L505.195 705C503.595 705.4 502.395 704.8 501.595 703.2C501.195 701.6 501.795 700.4 503.395 699.6L514.195 696.6L523.795 693.6L529.195 690.6C528.795 689 528.595 687.4 528.595 685.8L524.995 687.6L514.795 692.4C514.795 692.4 514.595 692.4 514.195 692.4L503.995 694.8C501.995 695.2 500.795 694.6 500.395 693C499.995 691.4 500.595 690.4 502.195 690L512.995 687L522.595 682.8L528.595 679.8C528.595 679.4 528.595 678.6 528.595 677.4C528.595 675.8 527.595 674.8 525.595 674.4L516.595 678.6L506.395 683.4C504.795 683.8 503.595 683.2 502.795 681.6C501.995 680 502.395 678.8 503.995 678L514.195 673.8L523.795 669.6L528.595 667.8C528.595 665.8 528.595 663.8 528.595 661.8L524.995 663L514.795 666.6C514.795 666.6 514.595 666.6 514.195 666.6L505.795 669.6C504.195 670 502.995 669.4 502.195 667.8C501.795 666.2 502.395 665.2 503.995 664.8L512.995 661.8L523.195 657.6L528.595 655.8C528.595 653.8 528.595 651.6 528.595 649.2L523.795 650.4L512.995 653.4L503.395 657C501.795 657.4 500.595 656.8 499.795 655.2C499.395 653.2 499.995 652 501.595 651.6L511.795 648L521.995 645.6L528.595 643.2C528.995 642 529.195 640.2 529.195 637.8L524.995 639.6L515.995 642L505.795 646.2C504.195 647 502.995 646.4 502.195 644.4C501.795 642.8 502.395 641.8 503.995 641.4L514.195 637.2C514.195 637.2 514.395 637.2 514.795 637.2L523.195 634.2L529.195 631.8C529.195 629.4 529.395 627.4 529.795 625.8L526.195 627L515.995 631.8C515.595 631.8 515.395 631.8 515.395 631.8L506.395 634.2C504.795 635 503.595 634.4 502.795 632.4C502.395 630.8 502.995 629.8 504.595 629.4L513.595 626.4L524.395 622.2L529.795 619.8C529.795 619.4 529.795 618.8 529.795 618C529.795 616.8 529.795 615.6 529.795 614.4L526.195 615.6L517.195 619.2L506.395 623.4C504.795 623.8 503.595 623.2 502.795 621.6C502.395 620 502.995 618.8 504.595 618L514.795 614.4L524.395 610.8L529.795 608.4C529.795 606.8 529.795 605 529.795 603L524.395 604.8L514.795 609L505.195 613.8C503.595 614.6 502.395 614.2 501.595 612.6C500.795 611 501.195 609.8 502.795 609L512.395 604.2L521.995 600C522.395 600 522.595 600 522.595 600C522.595 599.6 522.595 599.4 522.595 599.4L529.795 597C529.795 595.4 529.595 593.2 529.195 590.4L526.195 591.6L516.595 595.8L506.395 600.6C504.795 601 503.595 600.4 502.795 598.8C501.995 597.2 502.395 596 503.995 595.2L524.395 586.8L529.195 584.4C529.195 582.4 529.195 580.8 529.195 579.6L524.995 580.8L516.595 584.4L506.995 589.2C505.395 590 504.195 589.6 503.395 588C502.595 586.4 502.995 585.2 504.595 584.4L522.595 575.4C522.995 575.4 523.195 575.4 523.195 575.4L529.195 574.2C529.195 571.4 529.195 569 529.195 567L514.795 571.8L505.195 575.4C503.595 576.2 502.395 575.8 501.595 574.2C500.795 572.6 501.395 571.4 503.395 570.6L512.395 567C512.395 567 512.395 566.8 512.395 566.4C512.795 566.4 512.995 566.4 512.995 566.4L521.995 564L529.195 561C529.195 561 529.195 560.8 529.195 560.4C529.195 559.2 528.395 558.6 526.795 558.6L516.595 562.2L505.795 566.4C504.195 566.8 502.995 566.2 502.195 564.6C501.795 563 502.395 561.8 503.995 561L514.195 557.4L524.995 553.2L529.195 551.4C529.195 549.4 529.195 547.2 529.195 544.8L524.995 546.6L514.795 550.2L505.795 553.2C504.195 554 502.995 553.6 502.195 552C501.795 550 502.395 548.8 503.995 548.4L513.595 544.8L523.195 541.8L529.795 538.8C529.795 536 528.995 534.2 527.395 533.4L518.395 537.6L507.595 541.8C505.995 542.2 504.795 541.6 503.995 540C503.595 538.4 504.195 537.2 505.795 536.4L515.995 532.8L525.595 528.6L530.395 526.8C530.395 525.6 530.395 524.4 530.395 523.2C530.795 521.6 530.995 520.2 530.995 519L525.595 521.4L515.395 524.4L505.795 528.6C504.195 529.4 502.995 529 502.195 527.4C501.395 525.8 501.795 524.6 503.395 523.8L512.995 519C513.395 519 513.595 519 513.595 519L523.795 516L531.595 513C531.595 511.4 531.595 509.8 531.595 508.2L525.595 510L515.995 514.8L506.995 519C505.395 520.2 504.195 520 503.395 518.4C502.595 516.8 502.995 515.4 504.595 514.2L513.595 510L523.195 505.2C523.195 505.2 523.395 505.2 523.795 505.2L532.195 502.2C532.195 501.4 532.195 500.8 532.195 500.4C532.195 498.8 532.195 497.2 532.195 495.6L526.195 498.6L516.595 501.6L505.795 506.4C504.195 507.2 502.995 506.8 502.195 505.2C501.395 503.6 501.995 502.4 503.995 501.6L514.195 496.8C514.595 496.8 514.795 496.8 514.795 496.8L524.395 493.2L532.195 489.6C532.595 488 532.795 486.4 532.795 484.8L526.195 486.6L515.395 489.6L506.995 492C505.395 492.8 504.195 492.4 503.395 490.8C502.995 488.8 503.595 487.6 505.195 487.2L514.195 484.2L524.395 481.8L532.795 479.4C532.795 477 532.795 474.2 532.795 471L514.795 477C514.795 477 514.595 477 514.195 477L503.995 480C501.995 480.4 500.795 479.8 500.395 478.2C499.995 476.2 500.595 475 502.195 474.6L512.995 472.2L521.995 468.6L532.195 465C532.195 464.6 532.195 464.2 532.195 463.8C532.195 463.4 532.195 463 532.195 462.6C532.195 461.8 532.195 461 532.195 460.2L527.395 462L517.195 465.6L506.995 468.6C505.395 469.4 504.195 468.8 503.395 466.8C502.995 465.2 503.595 464.2 505.195 463.8L515.995 460.2L525.595 456.6L532.195 454.8C532.195 452.8 532.195 451 532.195 449.4L526.795 451.2L517.195 455.4L508.195 459C506.595 459.4 505.395 458.8 504.595 457.2C504.195 455.6 504.795 454.4 506.395 453.6L514.795 450.6L524.995 446.4L532.195 443.4C532.195 442.6 532.195 441.6 532.195 440.4C532.195 439.2 532.395 438 532.795 436.8L524.995 439.2L516.595 441.6L506.995 446.4C505.395 447.2 504.195 446.8 503.395 445.2C502.595 443.6 502.995 442.4 504.595 441.6L514.195 436.8C514.595 436.8 514.795 436.8 514.795 436.8L523.195 433.8L532.795 431.4C532.795 429 532.795 426.6 532.795 424.2L523.795 426.6L512.995 429.6L503.995 433.2C502.395 433.6 501.195 433 500.395 431.4C499.995 429.8 500.595 428.6 502.195 427.8L511.195 424.2C511.195 424.2 511.395 424.2 511.795 424.2L521.995 421.8L532.795 418.8C533.195 417.2 533.395 415.6 533.395 414L524.995 418.2L515.995 422.4L506.995 426C505.395 426.8 504.195 426.2 503.395 424.2C502.995 422.6 503.595 421.6 505.195 421.2L513.595 417.6L522.595 413.4L533.395 408C533.795 405.6 533.995 403.6 533.995 402L524.995 405.6L515.395 410.4L504.595 414.6C502.995 415.4 501.795 415 500.995 413.4C500.195 411.8 500.795 410.6 502.795 409.8L512.995 405L523.195 400.8L533.995 396C533.995 394.8 533.995 393.6 533.995 392.4C533.995 391.6 533.995 390.8 533.995 390L524.995 394.2C524.995 394.2 524.995 394.4 524.995 394.8L515.395 397.2L505.795 402C504.195 402.8 502.995 402.4 502.195 400.8C501.395 399.2 501.795 398 503.395 397.2L512.995 392.4C513.395 392.4 513.595 392.4 513.595 392.4L523.195 389.4L534.595 384C534.595 381.6 534.595 379.2 534.595 376.8L514.195 384L503.995 388.2C502.395 389 501.195 388.6 500.395 387C499.595 385.4 499.995 384.2 501.595 383.4L511.795 378.6C512.195 378.6 512.395 378.6 512.395 378.6L522.595 375L534.595 371.4C534.995 369.4 535.195 367.2 535.195 364.8L525.595 367.8L516.595 372L506.995 375.6C505.395 376 504.195 375.4 503.395 373.8C502.995 372.2 503.595 371 505.195 370.2L514.195 367.2L523.795 363L535.195 359.4C535.195 357.8 535.195 356 535.195 354L527.395 357L516.595 361.2L507.595 363.6C505.995 364 504.795 363.4 503.995 361.8C503.595 360.2 504.195 359.2 505.795 358.8L515.395 355.8L525.595 351.6L535.195 348C535.195 345.6 535.195 344 535.195 343.2L526.195 346.2L515.395 349.2L505.195 353.4C503.595 354.2 502.395 353.8 501.595 352.2C500.795 350.6 501.395 349.4 503.395 348.6L513.595 344.4C513.595 344.4 513.795 344.2 514.195 343.8L524.395 341.4L535.195 336.6C535.195 333.8 534.995 331.8 534.595 330.6L524.395 334.2L514.795 338.4C514.395 338.4 514.195 338.4 514.195 338.4L505.195 341.4C503.595 341.8 502.395 341.2 501.595 339.6C501.195 338 501.795 336.8 503.395 336L512.395 333.6L521.995 328.8C522.395 328.8 522.595 328.8 522.595 328.8L535.195 324.6C535.195 323.4 535.195 322.2 535.195 321C535.195 320.2 535.195 319.2 535.195 318L526.195 321.6L517.795 325.2L506.995 328.8C505.395 329.6 504.195 329.2 503.395 327.6C502.995 326 503.595 324.8 505.195 324L515.395 319.8L524.395 316.8L535.795 312.6C535.795 311.4 535.795 310.4 535.795 309.6L530.995 310.8L521.995 313.2C521.595 313.6 521.195 313.8 520.795 313.8L510.595 317.4C508.995 318.2 507.795 317.8 506.995 316.2C506.595 314.2 507.195 313 508.795 312.6L518.995 308.4C518.995 308.4 519.195 308.4 519.595 308.4C519.595 308.4 520.395 308.2 521.995 307.8L528.595 304.8L536.995 300.6C538.195 297 540.395 293.8 543.595 291C545.595 288.6 547.995 287 550.795 286.2C553.995 285 556.995 284 559.795 283.2C561.795 283.2 563.595 283.2 565.195 283.2C566.795 283.2 568.395 283.2 569.995 283.2C571.995 283.2 573.395 283.2 574.195 283.2C582.195 283.2 590.395 283.4 598.795 283.8C598.795 283.8 598.995 283.8 599.395 283.8C621.395 286.2 643.395 287.6 665.395 288C687.395 288.4 709.195 289.2 730.795 290.4C744.395 291.2 757.995 291.4 771.595 291C785.595 290.2 799.395 289.4 812.995 288.6C816.595 288.2 820.195 288 823.795 288C827.795 287.6 831.595 287.4 835.195 287.4C838.795 287 842.395 286.8 845.995 286.8C849.595 286.8 853.195 286.8 856.795 286.8C857.595 286.8 858.995 286.8 860.995 286.8C862.195 286.4 863.595 286.2 865.195 286.2C866.795 286.2 868.395 286.4 869.995 286.8C872.795 287.2 875.395 288 877.795 289.2C880.595 290 883.195 291.6 885.595 294C888.795 297.6 890.595 301.6 890.995 306C891.395 310 891.595 314.2 891.595 318.6C891.595 320.2 891.395 321.2 890.995 321.6C890.995 326.8 890.995 332 890.995 337.2C890.995 342 890.995 347 890.995 352.2C891.395 357.8 891.595 363.4 891.595 369C891.595 374.2 891.595 379.4 891.595 384.6C891.595 385.4 891.795 386.4 892.195 387.6C892.195 392.4 891.795 397 890.995 401.4C890.595 405.8 888.595 410 884.995 414C882.995 416.4 880.595 418.2 877.795 419.4C874.995 420.2 871.995 421 868.795 421.8C867.195 422.2 865.595 422.4 863.995 422.4C862.795 422.4 861.395 422.4 859.795 422.4C857.795 422.4 856.395 422.4 855.595 422.4C853.995 422.4 852.195 422.6 850.195 423L840.595 426L830.395 429.6C828.795 430.4 827.595 430 826.795 428.4C826.795 428 826.795 427.6 826.795 427.2L819.595 429C818.395 429.4 817.395 429.2 816.595 428.4L809.395 432C807.795 432.8 806.595 432.4 805.795 430.8C804.995 429.2 805.395 428 806.995 427.2L812.395 424.8C810.795 424.8 809.195 424.8 807.595 424.8L803.995 426L793.795 428.4C791.795 429.2 790.595 428.6 790.195 426.6C790.195 426.2 790.195 425.8 790.195 425.4L780.595 429.6C778.995 430.4 777.795 430 776.995 428.4L771.595 430.8C769.995 431.6 768.795 431.2 767.995 429.6C767.195 428 767.795 426.8 769.795 426C768.995 426 767.595 426 765.595 426L759.595 428.4C759.195 428.8 757.595 428.8 754.795 428.4L746.395 430.8C744.795 431.6 743.595 431.2 742.795 429.6C742.795 429.2 742.795 429 742.795 429L734.395 431.4C732.795 432.2 731.595 431.8 730.795 430.2C730.395 429 730.595 428 731.395 427.2L722.395 430.2C720.795 431 719.595 430.6 718.795 429L709.795 432.6C708.195 433.4 706.995 433 706.195 431.4C705.795 430.6 705.795 429.8 706.195 429L697.795 432.6C697.795 432.6 697.795 432.8 697.795 433.2C697.795 434.8 697.795 436.4 697.795 438C697.795 439.6 697.795 441.2 697.795 442.8C697.795 444 697.795 445 697.795 445.8C698.995 445.8 699.795 445.8 700.195 445.8C700.595 445.8 700.995 445.8 701.395 445.8C701.795 445.8 702.195 445.8 702.595 445.8C705.795 445.8 709.195 445.8 712.795 445.8C716.395 445.8 719.995 445.8 723.595 445.8C733.195 445.4 742.795 445 752.395 444.6C762.395 443.8 772.195 443.2 781.795 442.8C787.395 442.8 792.995 442.8 798.595 442.8C804.595 442.8 810.395 442.8 815.995 442.8C818.395 443.2 820.795 443.4 823.195 443.4C825.595 443.4 827.795 443.4 829.795 443.4C831.795 443.4 833.795 443.4 835.795 443.4C837.795 443.4 839.795 443.4 841.795 443.4C842.595 443.4 843.795 443.4 845.395 443.4C850.595 443 855.395 443.2 859.795 444C864.195 444.4 868.395 446.4 872.395 450C876.795 454 879.195 458.6 879.595 463.8C880.395 468.6 880.995 473.6 881.395 478.8C881.395 484.4 881.595 490 881.995 495.6C882.395 500.8 882.795 506.2 883.195 511.8C883.195 515.4 883.395 519.2 883.795 523.2C884.195 526.8 884.595 530.4 884.995 534C884.995 534.8 884.995 536 884.995 537.6C885.395 539.2 885.595 540.8 885.595 542.4C885.595 544 885.595 545.6 885.595 547.2C884.795 550.4 883.795 553.4 882.595 556.2C881.795 559 880.195 561.6 877.795 564C875.395 566 872.795 567.6 869.995 568.8C867.195 569.6 864.195 570.2 860.995 570.6C860.995 570.6 860.795 570.6 860.395 570.6C859.595 570.6 859.195 570.6 859.195 570.6C854.395 570.6 848.795 570.4 842.395 570L835.795 573L826.795 576L815.995 580.2C814.395 581 813.195 580.6 812.395 579C811.595 577.4 812.195 576.2 814.195 575.4L803.995 579C802.395 579.8 801.195 579.4 800.395 577.8C799.995 576.2 800.395 575 801.595 574.2L795.595 577.2C793.595 578 792.395 577.6 791.995 576C791.995 576 791.595 576.2 790.795 576.6L780.595 579.6C778.995 580.4 777.995 580 777.595 578.4C777.595 578 777.395 577.8 776.995 577.8L772.195 580.2C770.595 581 769.395 580.6 768.595 579C767.795 577.4 768.195 576.2 769.795 575.4L778.195 571.2L783.595 568.2L776.995 571.2L766.195 574.8L756.595 578.4C754.995 579.2 753.795 578.8 752.995 577.2C752.595 576.4 752.595 575.6 752.995 574.8L746.395 576.6C744.395 577.4 743.195 577 742.795 575.4C742.795 575 742.795 574.8 742.795 574.8L733.795 578.4C732.195 579.2 730.995 578.8 730.195 577.2C729.795 575.6 730.395 574.4 731.995 573.6L736.195 571.8L730.795 573.6L720.595 576.6C719.395 577 718.595 577 718.195 576.6L710.995 579C709.395 579.8 708.395 579.4 707.995 577.8C707.595 577.4 707.195 577.2 706.795 577.2L697.795 581.4C696.195 582.2 694.995 581.8 694.195 580.2C693.795 581.4 693.595 582.6 693.595 583.8C693.595 584.2 693.595 584.6 693.595 585C694.395 585 695.195 585 695.995 585C701.595 585.4 707.195 585.8 712.795 586.2C718.795 586.6 724.595 587 730.195 587.4C730.195 587.4 730.395 587.4 730.795 587.4C749.995 590.2 769.195 591.6 788.395 591.6C807.995 591.6 827.195 592.2 845.995 593.4C847.995 593.4 849.995 593.4 851.995 593.4C853.995 593.4 855.995 593.4 857.995 593.4C858.795 593.4 859.995 593.4 861.595 593.4C866.795 593.4 871.595 593.8 875.995 594.6C880.795 595.4 885.195 597.6 889.195 601.2C893.195 605.2 895.595 610 896.395 615.6C897.195 620.8 897.595 626.2 897.595 631.8C897.595 633 897.595 634.4 897.595 636C897.595 637.2 897.595 638.4 897.595 639.6C897.995 648 898.195 656.6 898.195 665.4C898.595 673.8 898.795 682.2 898.795 690.6C898.795 691.4 898.795 692.2 898.795 693C898.795 697.8 898.395 702.6 897.595 707.4C897.195 711.8 894.995 715.8 890.995 719.4C888.595 721.8 885.995 723.4 883.195 724.2C880.395 725 877.395 725.8 874.195 726.6C872.595 726.6 870.995 726.6 869.395 726.6C868.195 726.6 866.795 726.4 865.195 726C863.195 726 861.795 726 860.995 726C858.595 726 856.595 726 854.995 726L846.595 729L836.395 732.6C834.795 733.4 833.595 733 832.795 731.4C832.795 730.6 832.795 730 832.795 729.6L823.795 732C821.795 732.8 820.595 732.2 820.195 730.2C820.195 730.2 820.195 730 820.195 729.6L811.195 733.2C809.195 734 807.995 733.6 807.595 732C807.195 731.6 806.995 731.2 806.995 730.8L798.595 734.4C796.995 735.2 795.795 734.8 794.995 733.2C794.995 732.8 794.995 732.2 794.995 731.4L788.995 733.8C787.395 734.6 786.195 734.2 785.395 732.6C784.995 731.8 784.995 731 785.395 730.2L776.995 734.4C775.395 735.2 774.195 734.8 773.395 733.2C772.595 731.6 773.595 730.2 776.395 729L766.195 732.6C764.995 733.4 763.995 733 763.195 731.4L755.395 734.4C753.795 735.2 752.595 734.8 751.795 733.2C751.395 732.4 751.395 731.6 751.795 730.8L744.595 734.4C742.995 735.2 741.795 734.8 740.995 733.2C740.195 731.6 740.595 730.4 742.195 729.6L748.795 726.6L739.795 729L728.995 731.4C727.395 731.8 726.395 731.4 725.995 730.2L719.395 732C718.195 732.4 717.195 732.2 716.395 731.4L707.395 733.8C705.795 734.6 704.795 734 704.395 732C703.995 730.4 704.595 729.4 706.195 729L716.395 726C715.595 726 714.595 726 713.395 726L707.995 728.4L698.395 730.8C696.795 731.6 695.795 731 695.395 729C694.995 728.6 694.195 728.6 692.995 729L683.995 731.4C682.395 732.2 681.195 731.6 680.395 729.6C680.395 729.6 680.395 729.4 680.395 729L672.595 730.8C670.995 731.2 669.795 730.8 668.995 729.6L663.595 732C661.995 732.8 660.795 732.4 659.995 730.8C659.595 730 659.595 729.4 659.995 729L651.595 733.2C649.995 734 648.795 733.6 647.995 732C647.595 731.6 647.395 731 647.395 730.2L636.595 734.4C634.995 735.2 633.795 734.8 632.995 733.2C632.595 732.4 632.595 731.6 632.995 730.8L626.995 732.6C624.995 733.4 623.795 732.8 623.395 730.8C622.195 730.8 620.795 730.8 619.195 730.8C617.995 730.8 616.195 731 613.795 731.4C612.995 731.8 612.195 731.8 611.395 731.4C610.595 731.4 609.795 731.4 608.995 731.4L603.595 733.2C601.995 734 600.795 733.6 599.995 732C599.995 732 599.995 731.8 599.995 731.4C597.595 731.8 595.395 732 593.395 732ZM559.195 713.4C560.795 713 561.995 713.6 562.795 715.2C562.795 715.6 562.795 716 562.795 716.4L570.595 713.4C572.595 713 573.795 713.6 574.195 715.2C574.195 715.6 574.195 716 574.195 716.4L582.595 713.4C584.195 713 585.195 713.6 585.595 715.2C585.995 716 585.995 716.8 585.595 717.6C585.995 717.6 586.395 717.6 586.795 717.6L593.395 714C594.995 713.2 596.195 713.6 596.995 715.2C597.395 716 597.395 716.6 596.995 717C597.395 717 597.595 717 597.595 717L605.395 714C606.995 713.2 608.195 713.6 608.995 715.2C608.995 715.6 608.995 716.2 608.995 717C609.395 717 609.795 717 610.195 717L616.795 714C618.395 713.2 619.595 713.6 620.395 715.2C620.395 715.6 620.395 716 620.395 716.4C621.195 716.4 621.995 716.4 622.795 716.4L628.195 714C630.195 713.2 631.395 713.6 631.795 715.2C631.795 715.2 631.995 715.4 632.395 715.8C633.195 715.4 633.995 715.2 634.795 715.2L640.195 713.4C641.795 713 642.795 713.4 643.195 714.6C644.395 714.6 645.595 714.6 646.795 714.6C647.995 714.2 649.795 713.8 652.195 713.4C652.995 713.4 653.595 713.6 653.995 714C664.795 712.8 675.595 712.2 686.395 712.2C697.195 711.8 707.995 711.6 718.795 711.6C723.195 711.6 727.595 711.6 731.995 711.6C736.795 711.6 741.395 711.6 745.795 711.6C748.995 711.6 752.195 711.6 755.395 711.6C758.595 711.2 761.795 711 764.995 711C775.395 711 785.795 711 796.195 711C806.595 710.6 816.795 710.4 826.795 710.4C832.795 710.4 838.595 710.6 844.195 711C850.195 711 855.995 711.2 861.595 711.6C862.395 711.6 863.595 711.8 865.195 712.2C868.395 712.2 870.795 712.2 872.395 712.2C873.595 711.8 874.995 711.4 876.595 711C878.595 710.6 879.995 710 880.795 709.2C882.795 707.2 883.795 705 883.795 702.6C884.195 699.8 884.395 697 884.395 694.2C884.395 692.6 884.395 691.6 884.395 691.2C884.395 682.4 884.195 673.8 883.795 665.4C883.795 657 883.595 648.6 883.195 640.2C883.195 638.6 883.195 636.4 883.195 633.6C883.595 629.6 883.595 625.6 883.195 621.6C882.795 617.2 881.395 614 878.995 612C876.995 609.6 874.395 608.4 871.195 608.4C867.995 608 864.995 607.8 862.195 607.8C860.195 607.8 858.795 607.8 857.995 607.8C855.995 607.8 853.795 607.8 851.395 607.8C849.395 607.8 847.395 607.8 845.395 607.8C826.195 606.6 806.795 606 787.195 606C767.595 606 748.195 604.6 728.995 601.8C723.395 601.4 717.595 601 711.595 600.6C705.995 600.2 700.395 599.8 694.795 599.4C693.595 599.4 691.995 599.4 689.995 599.4C688.395 599.8 686.795 600 685.195 600C683.595 599.6 681.995 598.6 680.395 597C678.795 595.4 677.995 594 677.995 592.8C677.995 591.2 678.195 589.6 678.595 588C678.995 586 679.195 584.6 679.195 583.8C679.595 580.6 679.795 577.4 679.795 574.2C679.795 570.6 679.795 567.2 679.795 564C679.795 563.2 679.595 561.8 679.195 559.8C679.195 558.2 679.195 556.8 679.195 555.6C679.195 554 680.195 552.4 682.195 550.8C684.195 549.6 685.995 549 687.595 549C689.195 549 690.995 549.2 692.995 549.6C694.995 550 696.595 550.2 697.795 550.2C702.195 550.2 706.395 550.4 710.395 550.8C714.795 550.8 719.195 550.8 723.595 550.8C741.995 551.6 760.395 552.2 778.795 552.6C797.595 552.6 816.195 553.6 834.595 555.6C838.995 555.6 843.195 555.8 847.195 556.2C851.195 556.2 855.195 556.2 859.195 556.2C860.795 556.2 862.395 556 863.995 555.6C865.595 555.2 866.995 554.6 868.195 553.8C868.995 552.6 869.595 551.2 869.995 549.6C870.395 548 870.795 546.4 871.195 544.8C871.595 543.6 871.395 541.4 870.595 538.2C870.595 536.6 870.595 535.6 870.595 535.2C870.195 531.2 869.795 527.4 869.395 523.8C868.995 520.2 868.795 516.6 868.795 513C868.395 507.4 867.995 501.8 867.595 496.2C867.195 490.6 866.995 485 866.995 479.4C866.995 478.6 866.995 477.4 866.995 475.8C866.995 473 866.795 470.2 866.395 467.4C865.995 464.6 864.795 462.4 862.795 460.8C860.795 458.8 858.195 457.8 854.995 457.8C852.195 457.4 849.195 457.2 845.995 457.2C844.395 457.6 842.995 457.8 841.795 457.8C839.795 457.8 837.795 457.8 835.795 457.8C833.795 457.8 831.795 457.8 829.795 457.8C827.395 457.8 824.995 457.8 822.595 457.8C820.595 457.8 818.395 457.6 815.995 457.2C810.395 457.2 804.795 457.2 799.195 457.2C793.595 457.2 787.795 457.2 781.795 457.2C772.195 457.6 762.595 458.2 752.995 459C743.395 459.4 733.595 459.6 723.595 459.6C719.995 460 716.395 460.2 712.795 460.2C709.195 460.2 705.595 460.2 701.995 460.2C701.995 460.2 701.795 460.2 701.395 460.2C700.995 460.2 700.595 460.2 700.195 460.2C698.995 460.2 697.395 460.4 695.395 460.8C693.795 460.8 692.195 460.8 690.595 460.8C688.995 460.8 687.195 460.2 685.195 459C683.595 457.4 682.795 456 682.795 454.8C682.795 453.2 682.795 451.6 682.795 450C683.195 448 683.395 446.6 683.395 445.8C683.395 444.6 683.395 443.8 683.395 443.4C683.395 440.6 683.395 438 683.395 435.6C683.395 432.8 683.395 430 683.395 427.2C683.395 426.4 683.195 425.2 682.795 423.6C682.395 421.6 682.195 420 682.195 418.8C682.195 417.2 683.195 415.6 685.195 414C686.795 413.2 688.195 412.8 689.395 412.8C690.995 412.4 692.595 412.2 694.195 412.2C694.195 412.2 694.395 412 694.795 411.6L698.995 410.4C700.995 410 702.195 410.6 702.595 412.2C702.595 412.6 702.595 413 702.595 413.4C702.995 413.4 703.395 413.4 703.795 413.4C703.795 413.4 703.795 413.2 703.795 412.8C704.195 412.8 704.395 412.8 704.395 412.8L710.995 410.4C712.595 410 713.795 410.6 714.595 412.2C714.595 412.6 714.595 413 714.595 413.4C715.795 413.4 716.995 413.2 718.195 412.8L722.395 411C723.995 410.2 725.195 410.6 725.995 412.2C726.395 412.2 726.595 412.4 726.595 412.8C727.795 412.8 728.995 412.8 730.195 412.8L734.995 411C736.595 410.2 737.795 410.6 738.595 412.2C739.395 412.2 740.395 412.2 741.595 412.2C742.795 411.8 744.395 411.4 746.395 411C747.995 410.2 749.195 410.4 749.995 411.6C751.195 411.6 752.395 411.6 753.595 411.6C754.795 411.6 756.595 411.2 758.995 410.4C760.195 410 761.195 410.4 761.995 411.6C763.195 411.6 764.395 411.6 765.595 411.6C767.195 411.6 768.795 411.4 770.395 411C771.595 410.2 772.795 410.4 773.995 411.6C775.195 411.6 776.395 411.6 777.595 411.6C779.195 411.2 780.995 411 782.995 411C783.795 410.2 784.795 410.2 785.995 411C787.195 411 788.395 411 789.595 411C791.195 411 792.995 410.8 794.995 410.4C796.195 410.4 796.995 410.6 797.395 411C800.995 411 804.395 410.8 807.595 410.4C807.595 410.4 807.795 410.4 808.195 410.4C816.595 410 824.395 409.4 831.595 408.6C839.595 408.2 847.395 408 854.995 408C855.795 408 857.195 408 859.195 408C861.995 408 864.195 408 865.795 408C867.395 407.6 868.995 407.2 870.595 406.8C872.195 406.4 873.595 405.6 874.795 404.4C876.395 402.4 877.195 400 877.195 397.2C877.595 394.4 877.795 391.6 877.795 388.8C877.395 387.2 877.195 386 877.195 385.2C877.195 379.6 877.195 374.2 877.195 369C877.195 363.4 876.995 357.8 876.595 352.2C876.595 347 876.595 341.8 876.595 336.6C876.595 331.4 876.595 326.2 876.595 321C876.995 320.6 877.195 319.4 877.195 317.4C877.595 315 877.595 312.6 877.195 310.2C877.195 307.8 876.395 305.6 874.795 303.6C873.995 302.8 872.795 302.2 871.195 301.8C869.595 301.4 868.195 301 866.995 300.6C865.395 300.6 863.195 300.6 860.395 300.6C858.795 301 857.795 301.2 857.395 301.2C853.795 301.2 850.195 301.2 846.595 301.2C842.995 301.2 839.395 301.4 835.795 301.8C832.195 301.8 828.595 302 824.995 302.4C821.395 302.4 817.595 302.6 813.595 303C799.995 303.8 786.195 304.6 772.195 305.4C758.195 305.8 744.195 305.6 730.195 304.8C708.195 303.6 686.195 302.8 664.195 302.4C642.195 302 620.195 300.6 598.195 298.2C589.795 297.8 581.795 297.6 574.195 297.6C573.395 297.6 571.995 297.6 569.995 297.6C568.795 297.6 567.595 297.6 566.395 297.6C565.195 297.2 563.995 297.2 562.795 297.6C562.795 297.6 562.595 297.6 562.195 297.6C562.195 298 561.795 298.4 560.995 298.8L553.195 301.2C551.195 303.2 549.995 305.8 549.595 309C549.595 311.8 549.595 314.6 549.595 317.4C549.595 319 549.595 320.2 549.595 321C549.595 333 549.595 345 549.595 357C549.595 369 549.195 381 548.395 393C548.395 401 548.195 409 547.795 417C547.395 425 546.995 433 546.595 441C546.595 445 546.595 449 546.595 453C546.595 456.6 546.595 460.4 546.595 464.4C546.995 470.4 547.195 476.4 547.195 482.4C547.195 488.4 546.995 494.4 546.595 500.4C546.595 500.4 546.595 500.6 546.595 501C546.195 503.8 545.995 506.8 545.995 510C546.395 510.4 546.595 510.8 546.595 511.2C546.995 512.4 546.795 513.4 545.995 514.2C545.595 516.2 545.395 518.6 545.395 521.4C545.795 521.8 545.995 522.2 545.995 522.6C546.795 524.2 546.395 525.4 544.795 526.2C544.795 528.6 544.595 530.8 544.195 532.8C544.995 533.2 545.595 533.8 545.995 534.6C546.795 536.2 546.195 537.4 544.195 538.2C544.195 540.6 543.995 542.8 543.595 544.8C544.795 544.8 545.595 545.2 545.995 546C546.795 547.6 545.995 549.2 543.595 550.8C543.595 552.4 543.595 554.2 543.595 556.2C545.195 555.8 546.195 556.4 546.595 558C546.995 560 545.995 561.4 543.595 562.2C543.595 563.8 543.595 565.8 543.595 568.2C544.795 567.8 545.595 568.2 545.995 569.4C546.795 571 545.995 572.6 543.595 574.2C543.595 575.8 543.595 577.6 543.595 579.6C545.195 579.6 546.195 580.4 546.595 582C546.995 583.6 545.995 584.8 543.595 585.6V586.2C543.595 588.6 543.595 590.4 543.595 591.6C544.795 591.6 545.795 592.2 546.595 593.4C546.995 595 546.195 596.2 544.195 597C544.195 599.4 544.195 601.4 544.195 603C545.395 603.4 546.195 604.2 546.595 605.4C546.995 607 546.195 608.2 544.195 609C544.195 611 544.195 613 544.195 615C545.395 615 546.195 615.6 546.595 616.8C546.995 618.4 546.195 619.6 544.195 620.4C544.195 622.4 543.995 624.6 543.595 627C545.195 626.6 546.195 627.2 546.595 628.8C546.995 630.4 545.995 631.6 543.595 632.4C543.595 633.6 543.595 635.4 543.595 637.8C543.595 637.8 543.595 638 543.595 638.4C545.195 638 546.195 638.6 546.595 640.2C546.995 642.2 545.795 643.6 542.995 644.4C542.995 646.8 542.995 648.8 542.995 650.4C544.595 650 545.795 650.6 546.595 652.2C546.995 653.8 545.795 655.2 542.995 656.4C542.995 658.8 542.995 660.8 542.995 662.4C544.595 661.6 545.795 662 546.595 663.6C546.995 665.2 545.795 666.6 542.995 667.8C542.995 670.6 542.995 672.6 542.995 673.8C544.595 673.4 545.795 674 546.595 675.6C546.995 677.2 545.795 678.6 542.995 679.8C542.995 681.8 542.995 683.8 542.995 685.8C544.595 685 545.795 685.6 546.595 687.6C546.995 689.2 545.995 690.4 543.595 691.2C543.595 693.2 543.595 695.2 543.595 697.2C544.795 697.2 545.595 697.8 545.995 699C546.795 700.6 546.395 701.8 544.795 702.6C545.195 703.8 545.595 705 545.995 706.2C546.795 707 547.395 707.8 547.795 708.6C549.395 708.2 550.395 708.8 550.795 710.4L559.195 713.4ZM694.195 577.8C694.195 577.4 694.595 577 695.395 576.6L704.395 572.4C704.395 572.4 704.595 572.2 704.995 571.8L715.195 567.6L720.595 565.2C720.595 565.2 720.395 565.2 719.995 565.2L715.195 566.4L705.595 569.4L697.195 573.6C696.795 573.6 695.795 574 694.195 574.8C694.195 575.2 694.195 575.8 694.195 576.6C694.195 577 694.195 577.4 694.195 577.8ZM763.195 725.4C763.195 725.4 762.795 725.4 761.995 725.4L757.795 727.8L763.195 725.4Z" fill="#6750A4"/>
</svg>
